<svg xmlns="http://www.w3.org/2000/svg" viewBox="0 0 582.46 114.04"><defs><style>.cls-1{fill:#ffffff;}</style></defs><title>logo_eng_horisontal2_7com</title><g id="Слой_2" data-name="Слой 2"><g id="Слой_1-2" data-name="Слой 1"><path class="cls-1" d="M149.42,60.85h10.93v1.42c0,1.61.54,2.15,2.15,2.15H186c1.61,0,2.15-.54,2.15-2.15V61c0-1.61-.54-2-2.15-2.15l-28.4-1.22c-5.32-.24-7.71-2.44-7.71-7.71V45.38c0-5.32,2.44-7.71,7.71-7.71h33.47c5.27,0,7.71,2.39,7.71,7.71v2.78H187.87v-1c0-1.61-.54-2.15-2.15-2.15H163.38c-1.61,0-2.15.54-2.15,2.15v.63c0,1.56.54,2,2.15,2.15l28.4,1.22c5.32.2,7.71,2.39,7.71,7.71v5.22c0,5.32-2.44,7.71-7.71,7.71H157.13c-5.27,0-7.71-2.39-7.71-7.71Z"/><path class="cls-1" d="M216,63.53h34.06v8.3H204.71V37.67H249.6V46H216v4.93h31.62v7H216Z"/><path class="cls-1" d="M294.94,37.67h12.54L284.79,71.83H274.54L251.85,37.67h13.08l15,23.47Z"/><path class="cls-1" d="M320.75,63.53h34.06v8.3H309.43V37.67h44.89V46H320.75v4.93h31.62v7H320.75Z"/><path class="cls-1" d="M398.93,37.67h10.93V71.83h-9.27L370.24,49.67V71.83H359.31V37.67H369l29.91,21.81Z"/><path class="cls-1" d="M425.23,71.83c-6.69,0-9.86-3.07-9.86-9.86V47.53c0-6.78,3.17-9.86,9.86-9.86h30c6.68,0,9.86,3.07,9.86,9.86v4.34H454.12V49.58c0-2.34-.83-3.12-3.12-3.12H429.82c-2.34,0-3.12.78-3.12,3.12V59.92c0,2.34.78,3.12,3.12,3.12H451c2.29,0,3.12-.78,3.12-3.12V57.29h10.93V62c0,6.78-3.17,9.86-9.86,9.86Z"/><path class="cls-1" d="M479.64,71.83c-6.68,0-9.86-3.07-9.86-9.86V47.53c0-6.78,3.17-9.86,9.86-9.86H511c6.69,0,9.86,3.07,9.86,9.86V62c0,6.78-3.17,9.86-9.86,9.86Zm26.74-8.93c2.29,0,3.12-.78,3.12-3.12V49.72c0-2.34-.83-3.12-3.12-3.12H484.23c-2.34,0-3.12.78-3.12,3.12V59.78c0,2.34.78,3.12,3.12,3.12Z"/><path class="cls-1" d="M572.85,37.67h9.61V71.83H571.53V51.77l-14.2,14.74h-6.15L537,51.77V71.83H526.05V37.67H536.1l18.35,19Z"/><path class="cls-1" d="M22.81,0V22.81H0V114H100.36V91.23h22.81V0ZM9.92,32.73H22.81V84.22L9.92,97.11Zm80.52,71.39H16.94L29.82,91.23H90.44Zm0-22.81H32.73V32.73H90.44Zm2.91-58.5H32.73V9.92h73.5Zm19.9,58.5H100.36V29.82l12.89-12.89ZM45,71.83H59.48L81.54,50V42.21H41.63v7.62H66.54Z"/></g></g></svg>